<svg width="72" height="72" viewBox="0 0 72 72"><path d="M35.8 51.51c-8.5-3.78-12.76-7.56-12.76-11.33V26.01c0-1.08.42-1.34 1.57-2.04.35-.2.77-.46 1.26-.79.23-.15 5.05-2.83 9.92-2.83 4.24 0 7.8 1.41 9.92 2.83.5.33.9.58 1.26.8 1.15.7 1.57.95 1.57 2.03a979.95 979.95 0 010 14.17c0 3.78-4.25 7.56-12.75 11.33zm9.9-11.33l.01-1.76v-2.77a6314.8 6314.8 0 00.01-9.11l-.2-.12-1.38-.88a15.5 15.5 0 00-8.35-2.36c-3.06 0-7.04 1.49-8.34 2.36l-1.4.88-.18.1v13.66c0 2.14 3.16 5.06 9.92 8.22 6.76-3.16 9.92-6.08 9.92-8.22zm-5.24-9.5l-6.09 6.08-3.24-3.25-2 2 5.24 5.26 8.09-8.09-2-2z"></path></svg>