<svg width="72" height="72" viewBox="0 0 72 72"><path d="M24.77 46.82c-1.3-1.3-1.68-3.3-1.27-5.92-2.15-1.57-3.3-3.24-3.3-5.1 0-1.85 1.15-3.52 3.3-5.09-.41-2.62-.04-4.61 1.27-5.92 1.31-1.31 3.3-1.69 5.93-1.28 1.56-2.14 3.24-3.29 5.1-3.29 1.84 0 3.52 1.15 5.08 3.3 2.62-.42 4.62-.04 5.93 1.27 1.31 1.3 1.69 3.3 1.27 5.92 2.15 1.57 3.3 3.24 3.3 5.1 0 1.85-1.15 3.52-3.3 5.09.42 2.62.04 4.61-1.27 5.92-1.3 1.31-3.3 1.69-5.93 1.28-1.56 2.14-3.24 3.29-5.09 3.29-1.85 0-3.53-1.15-5.1-3.3-2.61.42-4.6.04-5.92-1.27zm6.28-1.67c.57-.12 1.17.12 1.49.62 1.24 1.93 2.36 2.78 3.25 2.78.9 0 2.01-.85 3.26-2.78.32-.5.9-.74 1.48-.62 2.25.48 3.64.3 4.28-.33.63-.63.8-2.03.33-4.27-.12-.58.12-1.17.61-1.49 1.93-1.25 2.8-2.36 2.8-3.26 0-.9-.87-2-2.8-3.25-.49-.32-.73-.91-.61-1.49.48-2.24.3-3.64-.33-4.27-.64-.63-2.03-.81-4.28-.33a1.42 1.42 0 01-1.48-.62c-1.25-1.93-2.36-2.79-3.26-2.79-.9 0-2 .86-3.25 2.8-.32.49-.92.73-1.5.6-2.24-.47-3.63-.3-4.26.34-.64.63-.82 2.03-.34 4.27.13.58-.12 1.17-.61 1.49-1.93 1.25-2.79 2.36-2.79 3.25 0 .9.86 2.01 2.79 3.26.5.32.74.91.61 1.49-.48 2.24-.3 3.64.34 4.27.63.63 2.02.81 4.27.33zm9.4-14.6l-6.08 6.08-3.24-3.24-2 2 5.24 5.25 8.09-8.08-2-2z"></path></svg>