<svg width="72" height="72" viewBox="0 0 72 72"><path fill-rule="evenodd" d="M37.37 46.89v-1.7a11.08 11.08 0 007.58-4.72c4.3-.59 6.67-4.31 6.67-9.41V26.3a3.17 3.17 0 00-3.16-3.17h-2a3.17 3.17 0 00-2.75-1.59H27.87c-1.17 0-2.2.64-2.74 1.59h-2a3.17 3.17 0 00-3.17 3.16v4.75c0 5.1 2.38 8.83 6.68 9.42a11.08 11.08 0 007.57 4.72v1.7h-1.59a3.17 3.17 0 00-3.16 3.16h12.66a3.17 3.17 0 00-3.16-3.16h-1.59zM23.12 26.3h1.59v7.92c0 .73.07 1.44.2 2.12-1.17-1.05-1.79-2.86-1.79-5.29V26.3zm23.75 0v7.92c0 .73-.06 1.44-.2 2.12 1.17-1.05 1.79-2.86 1.79-5.29V26.3h-1.59zm-19 7.92v-9.5h15.84v9.5a7.92 7.92 0 01-15.84 0z"></path></svg>