<svg width="72" height="72" viewBox="0 0 72 72"><path fill-rule="evenodd" d="M20.42 30.83v14.45c0 2.98 4.9 4.82 10.84 4.82 5.94 0 10.84-1.84 10.84-4.82V30.83c0-2.98-4.9-4.82-10.84-4.82-5.95 0-10.84 1.84-10.84 4.82zm19.27 7.22V34c-2 1.06-5.04 1.66-8.43 1.66-3.4 0-6.44-.6-8.43-1.66v4.06c0 1.01 3.73 2.41 8.43 2.41 4.7 0 8.43-1.4 8.43-2.4zm-16.86 3.16c2 1.07 5.04 1.66 8.43 1.66 3.39 0 6.43-.6 8.43-1.66v4.07c0 1-3.74 2.4-8.43 2.4-4.7 0-8.43-1.4-8.43-2.4v-4.07zm16.86-10.38c0-1-3.74-2.4-8.43-2.4-4.7 0-8.43 1.4-8.43 2.4s3.73 2.4 8.43 2.4c4.68 0 8.4-1.38 8.43-2.4z"></path><path d="M34.59 25.45c0-2.28 3.74-3.69 8.28-3.69 4.55 0 8.3 1.4 8.3 3.69V36.5c0 2.2-3.52 3.6-7.87 3.68v-1.85c3.39-.08 6.02-1.1 6.02-1.83v-3.12c-1.44.77-3.6 1.22-6.02 1.27v-1.84c3.39-.08 6.02-1.1 6.02-1.84v-3.11c-1.44.77-3.6 1.22-6.03 1.27a3.98 3.98 0 00-.64-1.84h.22c3.6 0 6.45-1.07 6.45-1.84s-2.85-1.85-6.45-1.85c-3.59 0-6.44 1.08-6.44 1.85v.03H34.6v-.03z"></path></svg>